<svg width="59" height="37" viewBox="0 0 59 37" fill="none" xmlns="http://www.w3.org/2000/svg">
<path d="M16.4195 13.3963C16.4195 14.1553 16.497 14.7708 16.6327 15.2221C16.7877 15.6734 16.9815 16.1658 17.2528 16.6992C17.3497 16.8633 17.3885 17.0274 17.3885 17.171C17.3885 17.3762 17.2722 17.5813 17.0203 17.7865L15.7994 18.6481C15.625 18.7712 15.4505 18.8327 15.2955 18.8327C15.1017 18.8327 14.9079 18.7302 14.7141 18.5455C14.4428 18.2378 14.2103 17.9096 14.0165 17.5813C13.8227 17.2326 13.6289 16.8428 13.4157 16.3709C11.9041 18.2583 10.0049 19.202 7.71816 19.202C6.09029 19.202 4.79187 18.7096 3.84228 17.7249C2.89269 16.7402 2.4082 15.4273 2.4082 13.7861C2.4082 12.0423 2.98959 10.6268 4.17173 9.55998C5.35387 8.49321 6.92361 7.95982 8.91969 7.95982C9.57859 7.95982 10.2569 8.02137 10.9739 8.12394C11.6909 8.22651 12.4274 8.39063 13.2025 8.57527V7.07768C13.2025 5.51854 12.8925 4.43125 12.2917 3.79529C11.6716 3.15933 10.6251 2.8516 9.13286 2.8516C8.45458 2.8516 7.75692 2.93366 7.03988 3.1183C6.32284 3.30293 5.62519 3.5286 4.94691 3.81581C4.63684 3.95941 4.40428 4.04147 4.26863 4.0825C4.13297 4.12353 4.03607 4.14404 3.95856 4.14404C3.68724 4.14404 3.55159 3.9389 3.55159 3.50808V2.50285C3.55159 2.17461 3.59035 1.92843 3.68724 1.78483C3.78414 1.64122 3.95856 1.49762 4.22987 1.35402C4.90815 0.984747 5.72208 0.677023 6.67167 0.430844C7.62126 0.16415 8.62899 0.0410603 9.69486 0.0410603C12.001 0.0410603 13.687 0.594963 14.7723 1.70277C15.8381 2.81057 16.3808 4.4928 16.3808 6.74944V13.3963H16.4195ZM8.55148 16.5145C9.191 16.5145 9.8499 16.3915 10.5476 16.1453C11.2452 15.8991 11.8654 15.4478 12.3886 14.8323C12.6987 14.4425 12.9312 14.0117 13.0475 13.5194C13.1638 13.027 13.2413 12.4321 13.2413 11.7346V10.8729C12.6793 10.7293 12.0785 10.6062 11.4584 10.5242C10.8382 10.4421 10.2375 10.4011 9.63672 10.4011C8.3383 10.4011 7.38871 10.6678 6.74919 11.2217C6.10967 11.7756 5.7996 12.5552 5.7996 13.5809C5.7996 14.5451 6.03215 15.2631 6.51664 15.7555C6.98174 16.2684 7.66002 16.5145 8.55148 16.5145ZM24.1131 18.7302C23.7643 18.7302 23.5318 18.6686 23.3767 18.525C23.2217 18.4019 23.086 18.1147 22.9698 17.7249L18.4156 1.86689C18.2993 1.45659 18.2412 1.1899 18.2412 1.04629C18.2412 0.718053 18.3962 0.533418 18.7063 0.533418H20.6055C20.9737 0.533418 21.2256 0.594963 21.3613 0.738568C21.5163 0.861657 21.6326 1.14887 21.7489 1.53865L25.0046 15.1195L28.0278 1.53865C28.1247 1.12835 28.241 0.861657 28.396 0.738568C28.551 0.615478 28.8223 0.533418 29.1712 0.533418H30.7215C31.0897 0.533418 31.3417 0.594963 31.4967 0.738568C31.6517 0.861657 31.7874 1.14887 31.8649 1.53865L34.9269 15.2836L38.2795 1.53865C38.3958 1.12835 38.5314 0.861657 38.6671 0.738568C38.8221 0.615478 39.0741 0.533418 39.4229 0.533418H41.2252C41.5352 0.533418 41.7096 0.697538 41.7096 1.04629C41.7096 1.14887 41.6903 1.25144 41.6709 1.37453C41.6515 1.49762 41.6128 1.66174 41.5352 1.8874L36.8648 17.7454C36.7485 18.1557 36.6129 18.4224 36.4578 18.5455C36.3028 18.6686 36.0509 18.7507 35.7214 18.7507H34.0548C33.6866 18.7507 33.4346 18.6891 33.2796 18.5455C33.1246 18.4019 32.9889 18.1352 32.9114 17.7249L29.9076 4.4928L26.9232 17.7044C26.8263 18.1147 26.71 18.3814 26.5549 18.525C26.3999 18.6686 26.1286 18.7302 25.7798 18.7302H24.1131ZM49.0157 19.2841C48.008 19.2841 47.0002 19.161 46.0313 18.9148C45.0623 18.6686 44.3065 18.4019 43.8026 18.0942C43.4926 17.9096 43.2794 17.7044 43.2019 17.5198C43.1243 17.3351 43.0856 17.13 43.0856 16.9454V15.8991C43.0856 15.4683 43.2406 15.2631 43.5313 15.2631C43.6476 15.2631 43.7639 15.2836 43.8801 15.3247C43.9964 15.3657 44.1708 15.4478 44.3646 15.5298C45.0235 15.8376 45.7406 16.0837 46.4964 16.2479C47.2715 16.412 48.0273 16.494 48.8025 16.494C50.0234 16.494 50.973 16.2684 51.6319 15.817C52.2908 15.3657 52.6396 14.7092 52.6396 13.8681C52.6396 13.2937 52.4652 12.8219 52.1164 12.4321C51.7676 12.0423 51.1087 11.6935 50.1591 11.3653L47.3491 10.4421C45.9344 9.97028 44.8879 9.27278 44.2484 8.3496C43.6088 7.44695 43.2794 6.44172 43.2794 5.37494C43.2794 4.51331 43.4538 3.75426 43.8026 3.09778C44.1515 2.44131 44.6166 1.86689 45.1979 1.41556C45.7793 0.943717 46.4382 0.594963 47.2134 0.348784C47.9886 0.102605 48.8025 3.05176e-05 49.6552 3.05176e-05C50.0816 3.05176e-05 50.5273 0.0205454 50.9536 0.0820902C51.3994 0.143635 51.8063 0.225695 52.2133 0.307754C52.6009 0.410329 52.9691 0.512904 53.3179 0.635993C53.6667 0.759083 53.9381 0.882172 54.1319 1.00526C54.4032 1.16938 54.597 1.3335 54.7132 1.51813C54.8295 1.68225 54.8876 1.90792 54.8876 2.19513V3.15933C54.8876 3.59014 54.7326 3.81581 54.4419 3.81581C54.2869 3.81581 54.035 3.73375 53.7055 3.56963C52.6009 3.03624 51.3606 2.76955 49.9847 2.76955C48.88 2.76955 48.008 2.95418 47.4072 3.34396C46.8064 3.73375 46.4964 4.32868 46.4964 5.16979C46.4964 5.74421 46.6902 6.23657 47.0777 6.62635C47.4653 7.01613 48.1824 7.40592 49.2095 7.75467L51.9614 8.67784C53.3567 9.14969 54.3644 9.80616 54.9652 10.6473C55.5659 11.4884 55.8566 12.4526 55.8566 13.5194C55.8566 14.4015 55.6822 15.2016 55.3528 15.8991C55.0039 16.5966 54.5388 17.2121 53.9381 17.7044C53.3373 18.2173 52.6203 18.5865 51.7869 18.8532C50.9149 19.1405 50.004 19.2841 49.0157 19.2841Z" fill="black"/>
<path fill-rule="evenodd" clip-rule="evenodd" d="M52.6794 29.2542C46.3036 34.2394 37.0403 36.8858 29.0753 36.8858C17.9128 36.8858 7.85487 32.5161 0.258137 25.2538C-0.342625 24.6794 0.199999 23.8998 0.917037 24.3512C9.13391 29.3978 19.2693 32.4546 29.7536 32.4546C36.8271 32.4546 44.5982 30.8954 51.7492 27.6951C52.8151 27.1822 53.7259 28.4336 52.6794 29.2542Z" fill="black"/>
<path fill-rule="evenodd" clip-rule="evenodd" d="M55.3355 26.0536C54.5216 24.9457 49.9481 25.5202 47.8745 25.7869C47.2543 25.8689 47.1574 25.2945 47.7194 24.8637C51.3628 22.1557 57.351 22.9353 58.0487 23.8379C58.7463 24.7611 57.8549 31.1002 54.4441 34.1364C53.9208 34.6083 53.417 34.3621 53.6495 33.7467C54.4247 31.7157 56.1495 27.1408 55.3355 26.0536Z" fill="black"/>
</svg>
