<svg width="48" height="48" viewBox="0 0 48 48" fill="none" xmlns="http://www.w3.org/2000/svg">
<rect width="48" height="48" rx="24" fill="#E6F2FF"/>
<path d="M24.5571 23.1C22.7771 22.51 21.9171 22.14 21.9171 21.2C21.9171 20.18 23.0271 19.81 23.7271 19.81C25.0371 19.81 25.5171 20.8 25.6271 21.15L27.2071 20.48C27.0571 20.04 26.3871 18.57 24.5471 18.25V17H22.7971V18.26C20.1971 18.82 20.1771 21.11 20.1771 21.22C20.1771 23.49 22.4271 24.13 23.5271 24.53C25.1071 25.09 25.8071 25.6 25.8071 26.56C25.8071 27.69 24.7571 28.17 23.8271 28.17C22.0071 28.17 21.4871 26.3 21.4271 26.08L19.7671 26.75C20.3971 28.94 22.0471 29.53 22.7871 29.71V31H24.5371V29.76C25.0571 29.67 27.5571 29.17 27.5571 26.54C27.5671 25.15 26.9571 23.93 24.5571 23.1Z" fill="#5F6B7A"/>
<path d="M23.667 14C18.147 14 13.667 18.48 13.667 24C13.667 29.52 18.147 34 23.667 34C29.187 34 33.667 29.52 33.667 24C33.667 18.48 29.187 14 23.667 14ZM23.667 32C19.257 32 15.667 28.41 15.667 24C15.667 19.59 19.257 16 23.667 16C28.077 16 31.667 19.59 31.667 24C31.667 28.41 28.077 32 23.667 32Z" fill="#5F6B7A"/>
</svg>
